# xmcd
#
# Track frame offsets: 
#        150
#        14348
#        26734
#        36308
#        45500
#        55603
#        63929
#        74532
#        88194
#        99862
#        114859
#        133256
#        146455
#
# Disc length: 2073 seconds
#
# Revision: 1
# Processed by: cddbd v1.5.2PL0 Copyright (c) Steve Scherf et al.
# Submitted via: ExactAudioCopy v0.99pb5
#
DISCID=ad08170d
DTITLE=The Fabulous Three - The Best Of The Fabulous Three
DYEAR=2015
DGENRE=R&B
TTITLE0=Answer Me Softly, Pt. 1 
TTITLE1=Answer Me Softly, Pt. 2
TTITLE2=Nightbird
TTITLE3=Whitesands, Pt. 1
TTITLE4=Whitesands, Pt. 2
TTITLE5=Django's Soul
TTITLE6=Sweetback
TTITLE7=No Name Bar
TTITLE8=Pep's
TTITLE9=Recording 82
TTITLE10=Odyssey Revised
TTITLE11=Hand Cramp
TTITLE12=Fly by End
EXTD=
EXTT0=
EXTT1=
EXTT2=
EXTT3=
EXTT4=
EXTT5=
EXTT6=
EXTT7=
EXTT8=
EXTT9=
EXTT10=
EXTT11=
EXTT12=
PLAYORDER=
